<svg id="visual" viewBox="0 0 960 540" width="960" height="540" xmlns="http://www.w3.org/2000/svg" xmlns:xlink="http://www.w3.org/1999/xlink" version="1.1"><rect x="0" y="0" width="960" height="540" fill="#009d4c"></rect><defs><linearGradient id="grad1_0" x1="43.8%" y1="100%" x2="100%" y2="0%"><stop offset="14.444444444444446%" stop-color="#009d4c" stop-opacity="1"></stop><stop offset="85.55555555555554%" stop-color="#009d4c" stop-opacity="1"></stop></linearGradient></defs><defs><linearGradient id="grad2_0" x1="0%" y1="100%" x2="56.3%" y2="0%"><stop offset="14.444444444444446%" stop-color="#009d4c" stop-opacity="1"></stop><stop offset="85.55555555555554%" stop-color="#009d4c" stop-opacity="1"></stop></linearGradient></defs><g transform="translate(960, 540)"><path d="M-378 0C-341 -28.3 -304.1 -56.6 -298.6 -97C-293.2 -137.4 -319.3 -189.9 -305.8 -222.2C-292.4 -254.4 -239.4 -266.5 -198.1 -272.6C-156.8 -278.8 -127.2 -279.2 -96.1 -295.8C-65 -312.4 -32.5 -345.2 0 -378L0 0Z" fill="#006436"></path></g><g transform="translate(0, 0)"><path d="M378 0C374.2 38.9 370.5 77.7 359.5 116.8C348.5 155.9 330.3 195.1 299.3 217.5C268.4 239.8 224.6 245.3 192.8 265.4C161 285.5 141.1 320.2 110.9 341.4C80.8 362.6 40.4 370.3 0 378L0 0Z" fill="#006436"></path></g></svg>