<svg id="visual" viewBox="0 0 960 540" width="960" height="540" xmlns="http://www.w3.org/2000/svg" xmlns:xlink="http://www.w3.org/1999/xlink" version="1.1"><rect x="0" y="0" width="960" height="540" fill="#009d4c"></rect><defs><linearGradient id="grad1_0" x1="43.8%" y1="0%" x2="100%" y2="100%"><stop offset="14.444444444444446%" stop-color="#009d4c" stop-opacity="1"></stop><stop offset="85.55555555555554%" stop-color="#009d4c" stop-opacity="1"></stop></linearGradient></defs><defs><linearGradient id="grad2_0" x1="0%" y1="0%" x2="56.3%" y2="100%"><stop offset="14.444444444444446%" stop-color="#009d4c" stop-opacity="1"></stop><stop offset="85.55555555555554%" stop-color="#009d4c" stop-opacity="1"></stop></linearGradient></defs><g transform="translate(960, 0)"><path d="M0 324C-24.5 291.5 -49 259 -82.2 253C-115.4 247 -157.4 267.6 -189.9 261.3C-222.3 255.1 -245.1 222 -262.1 190.4C-279.1 158.9 -290.2 128.8 -299.6 97.3C-308.9 65.9 -316.5 32.9 -324 0L0 0Z" fill="#006436"></path></g><g transform="translate(0, 540)"><path d="M0 -324C32.9 -320.5 65.9 -317.1 100.1 -308.1C134.4 -299.2 169.9 -284.9 186.3 -256.5C202.7 -228 200 -185.6 218.4 -158.7C236.9 -131.8 276.6 -120.6 297.7 -96.7C318.8 -72.9 321.4 -36.4 324 0L0 0Z" fill="#006436"></path></g></svg>