<svg id="visual" viewBox="0 0 960 540" width="960" height="540" xmlns="http://www.w3.org/2000/svg" xmlns:xlink="http://www.w3.org/1999/xlink" version="1.1"><rect x="0" y="0" width="960" height="540" fill="#009d4c"></rect><defs><linearGradient id="grad1_0" x1="43.8%" y1="0%" x2="100%" y2="100%"><stop offset="14.444444444444446%" stop-color="#009d4c" stop-opacity="1"></stop><stop offset="85.55555555555554%" stop-color="#009d4c" stop-opacity="1"></stop></linearGradient></defs><defs><linearGradient id="grad2_0" x1="0%" y1="0%" x2="56.3%" y2="100%"><stop offset="14.444444444444446%" stop-color="#009d4c" stop-opacity="1"></stop><stop offset="85.55555555555554%" stop-color="#009d4c" stop-opacity="1"></stop></linearGradient></defs><g transform="translate(960, 0)"><path d="M0 324C-36.2 322.8 -72.5 321.7 -98.9 304.3C-125.3 287 -142 253.5 -170.5 234.6C-198.9 215.8 -239.3 211.6 -262.1 190.4C-285 169.3 -290.3 131.3 -297.7 96.7C-305.1 62.2 -314.5 31.1 -324 0L0 0Z" fill="#006436"></path></g><g transform="translate(0, 540)"><path d="M0 -324C33.7 -320.4 67.5 -316.7 99.8 -307.2C132.2 -297.7 163.1 -282.3 190.4 -262.1C217.8 -242 241.6 -217.1 260.5 -189.3C279.5 -161.4 293.6 -130.6 303.4 -98.6C313.2 -66.5 318.6 -33.3 324 0L0 0Z" fill="#006436"></path></g></svg>