<svg id="visual" viewBox="0 0 960 540" width="960" height="540" xmlns="http://www.w3.org/2000/svg" xmlns:xlink="http://www.w3.org/1999/xlink" version="1.1"><rect x="0" y="0" width="960" height="540" fill="#009d4c"></rect><defs><linearGradient id="grad1_0" x1="43.8%" y1="100%" x2="100%" y2="0%"><stop offset="14.444444444444446%" stop-color="#009d4c" stop-opacity="1"></stop><stop offset="85.55555555555554%" stop-color="#009d4c" stop-opacity="1"></stop></linearGradient></defs><defs><linearGradient id="grad2_0" x1="0%" y1="100%" x2="56.3%" y2="0%"><stop offset="14.444444444444446%" stop-color="#009d4c" stop-opacity="1"></stop><stop offset="85.55555555555554%" stop-color="#009d4c" stop-opacity="1"></stop></linearGradient></defs><g transform="translate(960, 540)"><path d="M-324 0C-291.5 -24.5 -259 -49 -253 -82.2C-247 -115.4 -267.6 -157.4 -261.3 -189.9C-255.1 -222.3 -222 -245.1 -190.4 -262.1C-158.9 -279.1 -128.8 -290.2 -97.3 -299.6C-65.9 -308.9 -32.9 -316.5 0 -324L0 0Z" fill="#006436"></path></g><g transform="translate(0, 0)"><path d="M324 0C320.5 32.9 317.1 65.9 308.1 100.1C299.2 134.4 284.9 169.9 256.5 186.3C228 202.7 185.6 200 158.7 218.4C131.8 236.9 120.6 276.6 96.7 297.7C72.9 318.8 36.4 321.4 0 324L0 0Z" fill="#006436"></path></g></svg>