<svg id="visual" viewBox="0 0 960 540" width="960" height="540" xmlns="http://www.w3.org/2000/svg" xmlns:xlink="http://www.w3.org/1999/xlink" version="1.1"><rect x="0" y="0" width="960" height="540" fill="#009d4c"></rect><defs><linearGradient id="grad1_0" x1="43.8%" y1="0%" x2="100%" y2="100%"><stop offset="14.444444444444446%" stop-color="#009d4c" stop-opacity="1"></stop><stop offset="85.55555555555554%" stop-color="#009d4c" stop-opacity="1"></stop></linearGradient></defs><defs><linearGradient id="grad2_0" x1="0%" y1="0%" x2="56.3%" y2="100%"><stop offset="14.444444444444446%" stop-color="#009d4c" stop-opacity="1"></stop><stop offset="85.55555555555554%" stop-color="#009d4c" stop-opacity="1"></stop></linearGradient></defs><g transform="translate(960, 0)"><path d="M0 297C-32.2 294.8 -64.4 292.5 -91.2 280.6C-117.9 268.6 -139.2 246.9 -166.9 229.8C-194.6 212.6 -228.8 199.9 -240.3 174.6C-251.8 149.2 -240.6 111.2 -246.3 80C-252 48.8 -274.5 24.4 -297 0L0 0Z" fill="#006436"></path></g><g transform="translate(0, 540)"><path d="M0 -297C25.3 -279.2 50.7 -261.5 83.1 -255.8C115.6 -250.2 155.1 -256.6 172.8 -237.9C190.5 -219.1 186.5 -175.1 204.7 -148.7C222.9 -122.3 263.4 -113.6 282.5 -91.8C301.6 -69.9 299.3 -35 297 0L0 0Z" fill="#006436"></path></g></svg>