<svg xmlns="http://www.w3.org/2000/svg" version="1.1" xmlns:xlink="http://www.w3.org/1999/xlink" xmlns:svgjs="http://svgjs.com/svgjs" width="1400" height="576" preserveAspectRatio="none" viewBox="0 0 1400 576"><g mask="url(&quot;#SvgjsMask1072&quot;)" fill="none"><rect width="1400" height="576" x="0" y="0" fill="rgba(50, 177, 104, 1)"></rect><path d="M0,480.016C94.426,500.506,201.528,492.165,280.687,436.757C359.111,381.864,378.947,278.202,415.01,189.529C449.521,104.67,505.958,19.589,486.775,-69.988C467.831,-158.451,384.019,-214.217,315.818,-273.658C255.955,-325.832,191.07,-368.979,115.551,-393.53C38.294,-418.646,-41.824,-428.103,-122.161,-416.043C-211.523,-402.628,-302.451,-380.62,-370.032,-320.635C-442.201,-256.578,-509.01,-169.61,-508.516,-73.114C-508.03,21.867,-423.83,91.346,-367.534,167.847C-322.245,229.391,-270.222,280.384,-211.982,329.851C-144.618,387.068,-86.374,461.273,0,480.016" fill="#2c9a5b"></path><path d="M1400 1085.472C1529.135 1103.953 1657.188 1214.98 1775.924 1160.949 1892.691 1107.8139999999999 1933.65 956.9929999999999 1958.7939999999999 831.193 1980.942 720.381 1943.563 610.112 1907.42 503.044 1876.722 412.108 1831.711 328.791 1765.682 259.135 1701.858 191.805 1618.224 155.247 1536.3600000000001 111.59899999999999 1432.696 56.327999999999975 1338.253-46.44200000000001 1221.815-30.84400000000005 1104.865-15.177000000000021 1025.7060000000001 95.83999999999997 954.076 189.60500000000002 885.739 279.059 823.489 380.303 821.742 492.859 820.074 600.347 899.412 686.434 944.854 783.858 989.856 880.338 998.6600000000001 1003.605 1087.402 1062.412 1176.297 1121.3200000000002 1294.434 1070.364 1400 1085.472" fill="#39c776"></path></g><defs><mask id="SvgjsMask1072"><rect width="1400" height="576" fill="#ffffff"></rect></mask></defs></svg>